<svg id="visual" viewBox="0 0 900 600" width="900" height="600" xmlns="http://www.w3.org/2000/svg" xmlns:xlink="http://www.w3.org/1999/xlink" version="1.1"><path d="M0 521L21.5 505.5C43 490 86 459 128.8 450.3C171.7 441.7 214.3 455.3 257.2 464C300 472.7 343 476.3 385.8 466.2C428.7 456 471.3 432 514.2 419C557 406 600 404 642.8 420.7C685.7 437.3 728.3 472.7 771.2 487C814 501.3 857 494.7 878.5 491.3L900 488L900 601L878.5 601C857 601 814 601 771.2 601C728.3 601 685.7 601 642.8 601C600 601 557 601 514.2 601C471.3 601 428.7 601 385.8 601C343 601 300 601 257.2 601C214.3 601 171.7 601 128.8 601C86 601 43 601 21.5 601L0 601Z" fill="#067854" stroke-linecap="round" stroke-linejoin="miter"></path></svg>